<?xml version="1.0" encoding="UTF-8" standalone="no"?>
<!-- Generator: Adobe Illustrator 13.0.0, SVG Export Plug-In . SVG Version: 6.00 Build 14948)  -->

<svg
   width="3000"
   height="480"
   viewBox="0 0 3000 480"
   version="1.1"
   id="svg17"
   sodipodi:docname="appBarTitle.svg"
   inkscape:version="1.1.1 (3bf5ae0d25, 2021-09-20)"
   xmlns:inkscape="http://www.inkscape.org/namespaces/inkscape"
   xmlns:sodipodi="http://sodipodi.sourceforge.net/DTD/sodipodi-0.dtd"
   xmlns="http://www.w3.org/2000/svg"
   xmlns:svg="http://www.w3.org/2000/svg">
  <defs
     id="defs21" />
  <sodipodi:namedview
     id="namedview19"
     pagecolor="#ffffff"
     bordercolor="#666666"
     borderopacity="1.0"
     inkscape:pageshadow="2"
     inkscape:pageopacity="0.0"
     inkscape:pagecheckerboard="0"
     showgrid="false"
     inkscape:zoom="0.22627417"
     inkscape:cx="722.57474"
     inkscape:cy="302.73009"
     inkscape:window-width="1920"
     inkscape:window-height="1001"
     inkscape:window-x="-9"
     inkscape:window-y="-9"
     inkscape:window-maximized="1"
     inkscape:current-layer="svg17"
     fit-margin-top="0"
     fit-margin-left="0"
     fit-margin-right="0"
     fit-margin-bottom="0" />
  <g
     id="g877"
     transform="matrix(0.74655107,0,0,0.74655107,0.10606,62.851856)">
    <g
       id="Layer_2"
       transform="matrix(1.361458,0,0,1.361458,-40.718486,-26.297781)"
       style="fill:#f6b601;fill-opacity:1">
      <g
         id="g7"
         style="fill:#f6b601;fill-opacity:1">
        <path
           id="path5"
           d="m 148.718,221.207 8.67,25.461 c 4.691,13.768 8.879,24.779 9.425,24.779 a 0.037,0.037 0 0 0 0.024,-0.01 c 0.6,-0.53 17.57,-49.811 17.57,-49.811 H 217.3 l -39.68,115.619 h -22.86 c 0,0 -24.4,-70.471 -24.3,-70.739 l -25.47,69.851 H 82.357 l -39.18,-115.15 32.73,0.021 c 0,0 17.929,50.821 18.168,50.821 0,0 0,0 0,0 l 17.89,-50.841 h 36.751 M 32,213.2 l 3.6,10.584 39.18,115.149 1.845,5.424 h 33.957 l 1.918,-5.26 17.685,-48.5 c 1.524,4.434 3.171,9.213 4.818,13.988 6.097,17.655 12.197,35.277 12.197,35.277 l 1.864,5.383 h 34.266 l 1.854,-5.4 39.68,-115.618 3.637,-10.6 H 178.7 l -1.858,5.4 c -2.974,8.635 -6.921,20.031 -10.3,29.676 q -0.764,-2.194 -1.587,-4.611 l -8.669,-25.46 -1.846,-5.421 H 106.3 l -1.881,5.345 -10.451,29.701 C 90.515,238.551 86.512,227.24 83.452,218.566 l -1.882,-5.334 h -5.657 l -32.73,-0.021 z"
           fill="#ffe81f"
           style="fill:#f6b601;fill-opacity:1" />
      </g>
      <g
         id="g11"
         style="fill:#f6b601;fill-opacity:1">
        <path
           id="path9"
           d="m 655.258,220.758 -0.075,30.3 c 0,0 -32.643,-0.109 -49.239,-0.109 -5.521,0 -9.266,0.013 -9.444,0.045 -2.86,0.521 -4.681,6.6 -3.87,9.271 0.4,1.35 3.391,5.76 6.63,9.81 3.239,4.05 8.54,10.681 11.78,14.729 8.319,10.381 9.46,12.43 10.229,18.391 1.25,9.681 -3.329,20.16 -11.829,27.07 -8.518,6.93 -8.145,6.979 -71.383,6.979 h -2.777 c -38.46,-0.01 -58.8,-0.329 -61.761,-0.989 -5.26,-1.19 -13.64,-8.03 -35.79,-29.28 -7.967,-7.636 -15.309,-14.322 -15.686,-14.324 a 0.014,0.014 0 0 0 -0.015,0.016 l -0.261,44.579 -35.9,-0.159 -0.221,-114.98 h 80.061 c 24.13,0.871 40.46,24.91 37.21,40.24 a 45.576,45.576 0 0 1 -4.181,11.2 c -3.21,5.5 -11.38,12.56 -18.011,15.591 -2.449,1.108 -4.449,2.4 -4.449,2.858 0,1.71 8.061,9.649 11.08,10.91 2.579,1.079 10.09,1.319 43.21,1.319 h 10.608 c 33.293,0 31.618,-0.24 34.19,-5.741 1.8,-3.83 0.431,-6.12 -12.239,-20.39 -16.051,-15.971 -14.37,-23.621 -14.48,-29.271 -0.229,-6.77 5.1,-28.069 32.812,-28.069 h 73.8 m -215.07,53.12 c 15.37,0 18.49,-0.239 21.761,-1.66 11.04,-4.8 11.63,-18.979 1.04,-25.271 -2.319,-1.381 -5.3,-1.609 -21.96,-1.7 l -19.279,-0.1 c 0.159,0.15 -0.061,27.57 -0.061,27.57 0,0 4.829,1.162 18.5,1.162 m 223.089,-61.12 h -81.821 c -16.032,0 -25.515,6.328 -30.646,11.637 -8.347,8.633 -10.313,19.5 -10.162,24.629 0.008,0.427 0,0.865 0,1.322 -0.073,8.329 1.154,17.758 16.659,33.246 3.065,3.452 8.193,9.239 10.131,12.115 -4.238,0.521 -14.98,0.521 -26.262,0.521 h -4.792 -5.816 c -19.9,0 -36.688,-0.057 -40.128,-0.736 a 19.72,19.72 0 0 1 -1.9,-1.5 c 6.877,-4.235 13.83,-10.8 17.1,-16.412 a 53.281,53.281 0 0 0 5.1,-13.568 c 2.04,-9.625 -1.325,-21.236 -9,-31.068 -8.956,-11.471 -21.985,-18.334 -35.746,-18.83 l -0.145,-0.006 h -88.221 l 0.016,8.017 0.221,114.979 0.016,7.949 7.949,0.035 35.9,0.159 7.988,0.035 0.047,-7.988 0.155,-26.706 q 1.1,1.044 2.269,2.165 c 24.227,23.24 32.359,29.679 39.562,31.308 1.979,0.441 5.253,1.172 63.523,1.188 h 2.779 c 31.546,0 47.38,0 56.8,-0.91 10.789,-1.043 14.259,-3.49 19.461,-7.725 l 0.173,-0.141 c 10.685,-8.687 16.323,-21.83 14.715,-34.3 -1.048,-8.11 -3.194,-11.479 -11.922,-22.368 l -2.594,-3.24 c -3.04,-3.8 -6.713,-8.387 -9.175,-11.475 -1.986,-2.484 -3.546,-4.689 -4.487,-6.133 1.236,0 2.841,-0.005 4.918,-0.005 16.4,0 48.887,0.108 49.213,0.11 l 8.008,0.026 0.02,-8.008 0.075,-30.306 0.021,-8.016 z m -233.538,52.831 c 0.013,-2.021 0.025,-4.287 0.038,-6.557 0.01,-2 0.019,-4 0.022,-5.84 l 11.187,0.058 c 6.429,0.035 16.1,0.088 17.989,0.623 a 6.746,6.746 0 0 1 3.6,6.06 5.71,5.71 0 0 1 -3.821,4.951 c -1.75,0.76 -4.54,1 -18.57,1 -4.45,0 -7.883,-0.129 -10.449,-0.292 z"
           fill="#ffe81f"
           style="fill:#f6b601;fill-opacity:1" />
      </g>
      <g
         id="g15"
         style="fill:#f6b601;fill-opacity:1">
        <path
           id="path13"
           d="m 312.908,220.287 40.29,115.92 -32.83,0.15 -5.45,-17.41 -58.7,-0.471 -5.18,17.431 -32.5,-0.341 39.78,-115.229 54.59,-0.05 m -26.4,17 c -0.083,0.333 -5.144,14.219 -10.222,28.1 -5.12,14 -10.257,28 -10.328,28.109 0,0 0,0 0,0 v 0 c 0.136,-0.04 18.316,-0.08 29.968,-0.08 5.453,0 9.475,0.009 9.55,0.029 a 0.028,0.028 0 0 1 0,0.005 v -0.005 c -0.2,-0.529 -18.909,-55.486 -18.968,-56.162 a 0.028,0.028 0 0 0 0,-0.006 v 0 c 0,0 0,0 0,0.006 m 32.088,-25 -5.693,0.005 -54.59,0.051 -5.7,0.005 -1.859,5.386 -39.78,115.229 -3.623,10.494 11.1,0.115 32.5,0.341 6.033,0.063 1.719,-5.782 3.466,-11.662 46.854,0.375 3.708,11.848 1.765,5.638 5.907,-0.026 32.829,-0.15 11.2,-0.052 -3.676,-10.574 -40.29,-115.92 -1.871,-5.384 z m -41.123,73.142 c 1.515,-4.129 3.556,-9.71 6.327,-17.289 l 2.393,-6.545 q 0.994,2.934 2.169,6.4 c 0.646,1.906 3.485,10.27 5.92,17.428 -7.24,0 -12.69,0 -16.809,0.008 z"
           fill="#ffe81f"
           style="fill:#f6b601;fill-opacity:1" />
      </g>
      <g
         id="g19"
         transform="translate(0,-28)"
         style="fill:#f6b601;fill-opacity:1">
        <path
           id="path17"
           d="m 326.488,81.928 v 28.6 h -57.28 V 198 h -34.15 v -87.54 l -66.86,0.19 c -8.06,0 -9.14,6.42 -9.14,8.88 0,3.02 1.97,6.04 12.79,19.74 7.02,8.9 13.47,17.78 14.32,19.72 4.64,10.68 -1.36,27.32 -12.29,34.08 -7.79,4.813 -6.459,4.931 -64.308,4.931 H 37.908 v -32.13 h 97.9 l 2.89,-2.01 a 8.307,8.307 0 0 0 3.51,-5.79 c 0.6,-3.68 0.29,-4.16 -11.8,-17.78 -14.29,-16.1 -15.8,-19.04 -15.06,-29.32 0.84,-11.73 11.3,-28.77 29.58,-28.77 l 181.56,-0.271 m 8,-8.012 -8.013,0.012 -181.56,0.27 a 36,36 0 0 0 -27.342,12.72 c -5.814,6.652 -9.63,15.429 -10.206,23.477 -0.973,13.511 2.137,18.393 17.056,35.2 4.33,4.877 8.447,9.516 9.821,11.486 a 1.352,1.352 0 0 1 -0.054,0.159 c -0.015,0.012 -0.038,0.03 -0.07,0.052 l -0.822,0.572 H 29.908 V 206 h 79.662 c 28.522,0 42.6,-0.027 50.894,-0.635 9.49,-0.7 12.518,-2.323 17.054,-5.14 l 0.566,-0.351 c 14.262,-8.821 21.612,-29.827 15.422,-44.074 -1.91,-4.358 -14,-19.746 -15.376,-21.486 -3.8,-4.807 -10.062,-12.74 -11.054,-15.036 a 2.654,2.654 0 0 1 0.121,-0.532 4.131,4.131 0 0 1 1,-0.1 l 58.86,-0.167 V 206 h 50.15 v -87.47 h 57.28 V 73.916 Z"
           fill="#ffe81f"
           style="fill:#f6b601;fill-opacity:1" />
      </g>
      <g
         id="g23"
         transform="translate(0,-28)"
         style="fill:#f6b601;fill-opacity:1">
        <path
           id="path21"
           d="m 419.548,82.857 40.18,116.22 -32.77,-0.18 -5.32,-17.41 -58.439,-0.26 L 357.978,198 H 324.609 L 364.348,82.86 h 55.2 m -46.811,73.621 39.8,-0.05 c 0.136,0 -19.342,-57.2 -19.472,-57.241 v 0 c -0.142,-0.005 -20.779,57.29 -20.33,57.29 m 52.51,-81.621 h -66.6 l -1.86,5.39 -39.74,115.141 -3.66,10.61 h 50.484 l 1.75,-5.623 3.461,-11.121 46.632,0.207 3.6,11.774 1.721,5.629 5.887,0.033 32.77,0.18 11.3,0.062 -3.69,-10.678 -40.18,-116.22 -1.868,-5.386 z m -41.4,73.607 c 2.468,-7.027 5.9,-16.657 9.014,-25.312 2.948,8.644 6.209,18.245 8.588,25.29 l -17.6,0.022 z"
           fill="#ffe81f"
           style="fill:#f6b601;fill-opacity:1" />
      </g>
      <g
         id="g27"
         transform="translate(0,-28)"
         style="fill:#f6b601;fill-opacity:1">
        <path
           id="path25"
           d="m 532.4,82.857 c 25.921,0 43.91,0.37 47.37,0.97 a 34.376,34.376 0 0 1 20.65,12.22 c 5.67,6.86 6.97,10.14 7.71,19.54 1.061,13.27 -5.25,24.72 -17.7,32.15 -3.63,2.17 -7.359,4.28 -8.29,4.7 -1.43,0.65 -1.239,1.27 1.32,4.27 a 52.612,52.612 0 0 0 6.35,6.11 l 3.36,2.61 62.08,0.89 0.609,31.68 h -38.065 c -29.439,0 -38.86,-0.27 -41.62,-1.2 -4.13,-1.4 -14.069,-9.82 -34.271,-29.04 l -14.42,-13.72 0.152,43.96 H 490.592 V 82.857 h 41.8 m -5.458,51.77 h 19.671 c 19.141,0 19.739,-0.06 22.47,-2.11 4.881,-3.66 6.609,-7.43 6.091,-13.22 -0.53,-5.97 -2.83,-9.08 -8.6,-11.58 -3.25,-1.42 -6.381,-1.65 -21.721,-1.65 h -17.91 v 28.56 m 5.458,-59.77 H 482.6 V 206 h 53.071 l -0.028,-8.028 -0.088,-25.216 0.84,0.8 c 24.986,23.773 32.356,29.173 37.218,30.821 3.733,1.259 9.982,1.624 44.188,1.624 h 46.215 l -0.156,-8.154 -0.609,-31.68 -0.148,-7.734 -7.734,-0.111 -59.4,-0.851 -1.245,-0.967 c -0.4,-0.309 -0.876,-0.717 -1.389,-1.179 l 1.207,-0.717 c 15,-8.953 22.866,-23.407 21.569,-39.653 -0.863,-10.959 -2.82,-15.9 -9.52,-24 a 42.633,42.633 0 0 0 -25.447,-15 c -5.46,-0.947 -32.881,-1.089 -48.742,-1.089 z m 2.542,39.21 h 9.91 c 14.027,0 16.806,0.233 18.518,0.981 3.25,1.408 3.58,2.091 3.835,4.957 0.256,2.848 -0.1,3.994 -2.922,6.112 l -0.223,0.166 c -1.865,0.345 -8.786,0.345 -17.447,0.345 h -11.67 v -12.561 z"
           fill="#ffe81f"
           style="fill:#f6b601;fill-opacity:1" />
      </g>
    </g>
  </g>
  <path
     id="Path_1"
     data-name="Path 1"
     d="m 750.66154,169.32419 v 138.0455 h 27.68008 v -52.87604 h 18.63084 c 39.92324,0 52.34366,-20.76006 52.34366,-41.69756 0,-19.87286 -13.30767,-43.4719 -45.42367,-43.4719 z m 27.68008,61.74786 V 192.7458 h 5.67799 c 15.0821,0 36.90675,-2.48413 36.90675,19.16312 0,21.64724 -21.82465,19.16313 -36.90675,19.16313 z M 948.3257,169.32419 h -85.87929 v 138.0455 h 89.25053 v -23.42161 h -61.57033 v -34.77752 h 48.26267 V 225.74895 H 890.12661 V 192.7458 h 58.19909 z m 74.8782,-2.12923 c -39.39101,0 -56.9571,36.37445 -56.9571,71.15198 0,34.77752 17.56609,71.15199 56.9571,71.15199 39.3909,0 56.9571,-36.37447 56.9571,-71.15199 0,-34.77753 -17.5662,-71.15198 -56.9571,-71.15198 z m 0,21.82467 c 23.7763,0 28.5671,31.58367 28.5671,49.32731 0,17.74363 -4.7908,49.32732 -28.5671,49.32732 -23.7766,0 -28.56728,-31.58369 -28.56728,-49.32732 0,-17.74364 4.79068,-49.32731 28.56728,-49.32731 z m 73.2812,-19.69544 v 138.0455 h 27.6799 v -52.87604 h 18.6309 c 39.9232,0 52.3438,-20.76006 52.3438,-41.69756 0,-19.87286 -13.3077,-43.4719 -45.4237,-43.4719 z m 27.6799,61.74786 V 192.7458 h 5.6781 c 15.082,0 36.9067,-2.48413 36.9067,19.16312 0,21.64724 -21.8247,19.16313 -36.9067,19.16313 z m 111.7851,-61.74786 H 1208.27 v 138.0455 h 85.1695 v -23.42161 h -57.4894 z m 157.0311,0 h -85.8792 v 138.0455 h 89.2506 v -23.42161 h -61.5705 v -34.77752 h 48.2627 v -23.42161 h -48.2627 V 192.7458 h 58.1991 z m 51.8114,111.78491 h -26.2606 v 26.26059 h 9.0492 l -8.6942,23.4216 10.8235,4.61334 15.0821,-29.09956 z m 79.1367,-111.78491 v 138.0455 h 27.6801 v -52.87604 h 18.6307 c 39.9232,0 52.3438,-20.76006 52.3438,-41.69756 0,-19.87286 -13.3077,-43.4719 -45.4237,-43.4719 z m 27.6801,61.74786 V 192.7458 h 5.6779 c 15.082,0 36.9067,-2.48413 36.9067,19.16312 0,21.64724 -21.8247,19.16313 -36.9067,19.16313 z m 111.7848,-61.74786 h -27.68 v 138.0455 h 85.1694 v -23.42161 h -57.4894 z m 136.0937,0 h -37.2615 l -38.6813,138.0455 h 28.2124 l 9.0493,-34.60009 h 40.8104 l 9.0492,34.60009 h 28.2124 z m -3.3713,81.62074 h -29.8092 l 14.5496,-57.84427 h 0.7098 z m 130.9481,9.58156 c -2.6616,14.19491 -9.2267,27.14777 -25.7283,27.14777 -23.7765,0 -28.5673,-31.58369 -28.5673,-49.32732 0,-17.74364 4.7908,-49.32731 28.5673,-49.32731 16.679,0 23.0667,12.95286 25.7283,27.32519 l 26.2606,-3.54873 c -4.6134,-29.27698 -23.5991,-45.60113 -51.9889,-45.60113 -39.3908,0 -56.9571,36.37445 -56.9571,71.15198 0,34.77752 17.5663,71.15199 56.9571,71.15199 28.7446,0 47.7303,-17.21134 51.9889,-45.60115 z m 128.6413,-91.2023 h -85.8791 v 138.0455 h 89.2504 v -23.42161 h -61.5704 v -34.77752 h 48.2627 v -23.42161 h -48.2627 V 192.7458 h 58.1991 z m 110.0106,36.19702 c -2.3067,-23.24417 -19.8729,-38.32625 -43.2945,-38.32625 -23.9539,0 -44.8914,17.74364 -44.8914,42.58473 0,47.02063 64.9417,31.05136 64.9417,58.73143 0,11.88824 -9.0493,17.56621 -19.8728,17.56621 -13.1304,0 -19.1631,-8.69439 -21.6472,-20.40519 l -27.6801,4.08104 c 4.2584,26.97033 23.2441,39.74575 49.5046,39.74575 34.0679,0 46.8433,-25.19597 46.8433,-42.05242 0,-51.45655 -64.9417,-33.71292 -64.9417,-60.86069 a 16.217685,16.217685 0 0 1 16.8565,-15.96926 c 11.1784,0 16.5015,9.759 19.163,19.34056 z m 51.2791,75.58789 h -26.2606 v 26.26059 h 9.0493 l -8.6944,23.4216 10.8236,4.61334 15.0821,-29.09956 z m 170.3389,-111.78491 h -99.3644 v 23.42161 h 35.8422 v 114.62389 h 27.6801 V 192.7458 h 35.8421 z m 38.5038,53.94065 v -53.94065 h -27.6801 v 138.0455 h 27.6801 v -60.68325 h 45.6011 v 60.68325 h 27.68 v -138.0455 h -27.68 v 53.94065 z m 120.1243,84.10485 v -138.0455 h -27.68 v 138.0455 z m 19.1632,-138.0455 v 138.0455 h 27.6801 V 196.47195 h 0.3548 l 52.1663,110.89774 h 29.632 v -138.0455 h -27.6802 v 91.02486 h -0.355 l -41.3426,-91.02486 z m 207.6006,90.49255 c 1.0645,15.6144 -2.839,27.85752 -24.3089,27.85752 -23.7764,0 -28.5673,-31.58369 -28.5673,-49.32732 0,-17.74364 4.7909,-49.32731 28.5673,-49.32731 17.2113,0 23.7765,11.35593 26.0831,24.66365 l 24.8412,-3.72616 c -2.839,-26.26058 -23.7766,-42.76216 -50.9243,-42.76216 -39.3909,0 -56.957,36.37445 -56.957,71.15198 0,34.77752 17.5661,71.15199 56.957,71.15199 a 39.511531,39.511531 0 0 0 28.9221,-11.88824 l 2.6616,9.759 h 19.3406 v -69.37763 h -50.5694 v 21.82468 z m 133.9644,-54.29553 c -2.3067,-23.24417 -19.8729,-38.32625 -43.2945,-38.32625 -23.9539,0 -44.8915,17.74364 -44.8915,42.58473 0,47.02063 64.9417,31.05136 64.9417,58.73143 0,11.88824 -9.0491,17.56621 -19.8727,17.56621 -13.1304,0 -19.1632,-8.69439 -21.6473,-20.40519 l -27.68,4.08104 c 4.2583,26.97033 23.244,39.74575 49.5047,39.74575 34.0678,0 46.8432,-25.19597 46.8432,-42.05242 0,-51.45655 -64.9417,-33.71292 -64.9417,-60.86069 a 16.217685,16.217685 0 0 1 16.8564,-15.96926 c 11.1785,0 16.5016,9.759 19.1631,19.34056 z"
     fill="#ffe81f"
     style="fill:#f6b601;fill-opacity:1;stroke-width:3.54873" />
</svg>
