<?xml version="1.0" encoding="UTF-8" standalone="no"?>
<!-- Generator: Adobe Illustrator 13.0.0, SVG Export Plug-In . SVG Version: 6.00 Build 14948)  -->

<svg
   width="634.104"
   height="369.366"
   viewBox="0 0 634.104 369.366"
   version="1.1"
   id="svg17"
   sodipodi:docname="title.svg"
   inkscape:version="1.1.1 (3bf5ae0d25, 2021-09-20)"
   xmlns:inkscape="http://www.inkscape.org/namespaces/inkscape"
   xmlns:sodipodi="http://sodipodi.sourceforge.net/DTD/sodipodi-0.dtd"
   xmlns="http://www.w3.org/2000/svg"
   xmlns:svg="http://www.w3.org/2000/svg">
  <defs
     id="defs21" />
  <sodipodi:namedview
     id="namedview19"
     pagecolor="#ffffff"
     bordercolor="#666666"
     borderopacity="1.0"
     inkscape:pageshadow="2"
     inkscape:pageopacity="0.0"
     inkscape:pagecheckerboard="0"
     showgrid="false"
     inkscape:zoom="1.9744395"
     inkscape:cx="317.30524"
     inkscape:cy="184.60935"
     inkscape:window-width="1920"
     inkscape:window-height="1001"
     inkscape:window-x="-9"
     inkscape:window-y="-9"
     inkscape:window-maximized="1"
     inkscape:current-layer="svg17" />
  <g
     id="Group_1"
     data-name="Group 1"
     transform="translate(-669 -59)"
     style="fill:#f6b601;fill-opacity:1">
    <g
       id="Layer_2"
       transform="translate(639.092 83.084)"
       style="fill:#f6b601;fill-opacity:1">
      <g
         id="g7"
         style="fill:#f6b601;fill-opacity:1">
        <path
           id="path5"
           d="M148.718,221.207l8.67,25.461c4.691,13.768,8.879,24.779,9.425,24.779a.037.037,0,0,0,.024-.01c.6-.53,17.57-49.811,17.57-49.811H217.3l-39.68,115.619h-22.86s-24.4-70.471-24.3-70.739l-25.47,69.851H82.357l-39.18-115.15,32.73.021s17.929,50.821,18.168,50.821c0,0,0,0,0,0l17.89-50.841h36.751M32,213.2l3.6,10.584,39.18,115.149,1.845,5.424h33.957l1.918-5.26,17.685-48.5c1.524,4.434,3.171,9.213,4.818,13.988C141.1,322.24,147.2,339.862,147.2,339.862l1.864,5.383H183.33l1.854-5.4,39.68-115.618,3.637-10.6H178.7l-1.858,5.4c-2.974,8.635-6.921,20.031-10.3,29.676q-.764-2.194-1.587-4.611l-8.669-25.46-1.846-5.421H106.3l-1.881,5.345L93.968,248.257c-3.453-9.706-7.456-21.017-10.516-29.691l-1.882-5.334-5.657,0-32.73-.021L32,213.2Z"
           fill="#ffe81f"
           style="fill:#f6b601;fill-opacity:1" />
      </g>
      <g
         id="g11"
         style="fill:#f6b601;fill-opacity:1">
        <path
           id="path9"
           d="M655.258,220.758l-.075,30.3s-32.643-.109-49.239-.109c-5.521,0-9.266.013-9.444.045-2.86.521-4.681,6.6-3.87,9.271.4,1.35,3.391,5.76,6.63,9.81s8.54,10.681,11.78,14.729c8.319,10.381,9.46,12.43,10.229,18.391,1.25,9.681-3.329,20.16-11.829,27.07-8.518,6.93-8.145,6.979-71.383,6.979H535.28c-38.46-.01-58.8-.329-61.761-.989-5.26-1.19-13.64-8.03-35.79-29.28-7.967-7.636-15.309-14.322-15.686-14.324a.014.014,0,0,0-.015.016l-.261,44.579-35.9-.159-.221-114.98h80.061c24.13.871,40.46,24.91,37.21,40.24a45.576,45.576,0,0,1-4.181,11.2c-3.21,5.5-11.38,12.56-18.011,15.591-2.449,1.108-4.449,2.4-4.449,2.858,0,1.71,8.061,9.649,11.08,10.91,2.579,1.079,10.09,1.319,43.21,1.319l10.608,0c33.293,0,31.618-.24,34.19-5.741,1.8-3.83.431-6.12-12.239-20.39-16.051-15.971-14.37-23.621-14.48-29.271-.229-6.77,5.1-28.069,32.812-28.069l73.8,0m-215.07,53.12c15.37,0,18.49-.239,21.761-1.66,11.04-4.8,11.63-18.979,1.04-25.271-2.319-1.381-5.3-1.609-21.96-1.7l-19.279-.1c.159.15-.061,27.57-.061,27.57s4.829,1.162,18.5,1.162m223.089-61.12H581.456c-16.032,0-25.515,6.328-30.646,11.637-8.347,8.633-10.313,19.5-10.162,24.629.008.427,0,.865,0,1.322-.073,8.329,1.154,17.758,16.659,33.246,3.065,3.452,8.193,9.239,10.131,12.115-4.238.521-14.98.521-26.262.521h-4.792l-5.816,0c-19.9,0-36.688-.057-40.128-.736a19.72,19.72,0,0,1-1.9-1.5c6.877-4.235,13.83-10.8,17.1-16.412a53.281,53.281,0,0,0,5.1-13.568c2.04-9.625-1.325-21.236-9-31.068-8.956-11.471-21.985-18.334-35.746-18.83l-.145-.006H377.628l.016,8.017.221,114.979.016,7.949,7.949.035,35.9.159,7.988.035.047-7.988.155-26.706q1.1,1.044,2.269,2.165c24.227,23.24,32.359,29.679,39.562,31.308,1.979.441,5.253,1.172,63.523,1.188h2.779c31.546,0,47.38,0,56.8-.91,10.789-1.043,14.259-3.49,19.461-7.725l.173-.141c10.685-8.687,16.323-21.83,14.715-34.3-1.048-8.11-3.194-11.479-11.922-22.368l-2.594-3.24c-3.04-3.8-6.713-8.387-9.175-11.475-1.986-2.484-3.546-4.689-4.487-6.133,1.236,0,2.841-.005,4.918-.005,16.4,0,48.887.108,49.213.11l8.008.026.02-8.008.075-30.306.021-8.016ZM429.739,265.586c.013-2.021.025-4.287.038-6.557.01-2,.019-4,.022-5.84l11.187.058c6.429.035,16.1.088,17.989.623a6.746,6.746,0,0,1,3.6,6.06,5.71,5.71,0,0,1-3.821,4.951c-1.75.76-4.54,1-18.57,1-4.45,0-7.883-.129-10.449-.292Z"
           fill="#ffe81f"
           style="fill:#f6b601;fill-opacity:1" />
      </g>
      <g
         id="g15"
         style="fill:#f6b601;fill-opacity:1">
        <path
           id="path13"
           d="M312.908,220.287l40.29,115.92-32.83.15-5.45-17.41-58.7-.471-5.18,17.431-32.5-.341,39.78-115.229,54.59-.05m-26.4,17c-.083.333-5.144,14.219-10.222,28.1-5.12,14-10.257,28-10.328,28.109,0,0,0,0,0,0h0c.136-.04,18.316-.08,29.968-.08,5.453,0,9.475.009,9.55.029a.028.028,0,0,1,0,.005v-.005c-.2-.529-18.909-55.486-18.968-56.162a.028.028,0,0,0,0-.006h0s0,0,0,.006m32.088-25-5.693.005-54.59.051-5.7.005-1.859,5.386-39.78,115.229-3.623,10.494,11.1.115,32.5.341,6.033.063,1.719-5.782,3.466-11.662,46.854.375,3.708,11.848,1.765,5.638,5.907-.026,32.829-.15,11.2-.052-3.676-10.574-40.29-115.92-1.871-5.384Zm-41.123,73.142c1.515-4.129,3.556-9.71,6.327-17.289l2.393-6.545q.994,2.934,2.169,6.4c.646,1.906,3.485,10.27,5.92,17.428-7.24,0-12.69,0-16.809.008Z"
           fill="#ffe81f"
           style="fill:#f6b601;fill-opacity:1" />
      </g>
      <g
         id="g19"
         transform="translate(0 -98)"
         style="fill:#f6b601;fill-opacity:1">
        <path
           id="path17"
           d="M326.488,81.928v28.6h-57.28V198h-34.15v-87.54l-66.86.19c-8.06,0-9.14,6.42-9.14,8.88,0,3.02,1.97,6.04,12.79,19.74,7.02,8.9,13.47,17.78,14.32,19.72,4.64,10.68-1.36,27.32-12.29,34.08-7.79,4.813-6.459,4.931-64.308,4.931H37.908v-32.13h97.9l2.89-2.01a8.307,8.307,0,0,0,3.51-5.79c.6-3.68.29-4.16-11.8-17.78-14.29-16.1-15.8-19.04-15.06-29.32.84-11.73,11.3-28.77,29.58-28.77l181.56-.271m8-8.012-8.013.012-181.56.27A36,36,0,0,0,117.573,86.92c-5.814,6.652-9.63,15.429-10.206,23.477-.973,13.511,2.137,18.393,17.056,35.2,4.33,4.877,8.447,9.516,9.821,11.486a1.352,1.352,0,0,1-.054.159c-.015.012-.038.03-.07.052l-.822.572H29.908V206H109.57c28.522,0,42.6-.027,50.894-.635,9.49-.7,12.518-2.323,17.054-5.14l.566-.351c14.262-8.821,21.612-29.827,15.422-44.074-1.91-4.358-14-19.746-15.376-21.486-3.8-4.807-10.062-12.74-11.054-15.036a2.654,2.654,0,0,1,.121-.532,4.131,4.131,0,0,1,1-.1l58.86-.167V206h50.15v-87.47h57.28V73.916Z"
           fill="#ffe81f"
           style="fill:#f6b601;fill-opacity:1" />
      </g>
      <g
         id="g23"
         transform="translate(0 -98)"
         style="fill:#f6b601;fill-opacity:1">
        <path
           id="path21"
           d="M419.548,82.857l40.18,116.22-32.77-.18-5.32-17.41-58.439-.26L357.978,198H324.609l39.739-115.14h55.2m-46.811,73.621,39.8-.05a0,0,0,0,1,0,0c.136,0-19.342-57.2-19.472-57.241h0c-.142-.005-20.779,57.29-20.33,57.29m52.51-81.621h-66.6l-1.86,5.39-39.74,115.141L313.385,206h50.484l1.75-5.623,3.461-11.121,46.632.207,3.6,11.774,1.721,5.629,5.887.033,32.77.18,11.3.062L467.3,196.463l-40.18-116.22-1.868-5.386Zm-41.4,73.607c2.468-7.027,5.9-16.657,9.014-25.312,2.948,8.644,6.209,18.245,8.588,25.29l-17.6.022Z"
           fill="#ffe81f"
           style="fill:#f6b601;fill-opacity:1" />
      </g>
      <g
         id="g27"
         transform="translate(0 -98)"
         style="fill:#f6b601;fill-opacity:1">
        <path
           id="path25"
           d="M532.4,82.857c25.921,0,43.91.37,47.37.97a34.376,34.376,0,0,1,20.65,12.22c5.67,6.86,6.97,10.14,7.71,19.54,1.061,13.27-5.25,24.72-17.7,32.15-3.63,2.17-7.359,4.28-8.29,4.7-1.43.65-1.239,1.27,1.32,4.27a52.612,52.612,0,0,0,6.35,6.11l3.36,2.61,62.08.89.609,31.68H617.794c-29.439,0-38.86-.27-41.62-1.2-4.13-1.4-14.069-9.82-34.271-29.04l-14.42-13.72.152,43.96H490.592V82.857h41.8m-5.458,51.77h19.671c19.141,0,19.739-.06,22.47-2.11,4.881-3.66,6.609-7.43,6.091-13.22-.53-5.97-2.83-9.08-8.6-11.58-3.25-1.42-6.381-1.65-21.721-1.65h-17.91v28.56m5.458-59.77H482.6V206h53.071l-.028-8.028-.088-25.216.84.8c24.986,23.773,32.356,29.173,37.218,30.821,3.733,1.259,9.982,1.624,44.188,1.624h46.215l-.156-8.154-.609-31.68-.148-7.734-7.734-.111-59.4-.851-1.245-.967c-.4-.309-.876-.717-1.389-1.179l1.207-.717c15-8.953,22.866-23.407,21.569-39.653-.863-10.959-2.82-15.9-9.52-24a42.633,42.633,0,0,0-25.447-15c-5.46-.947-32.881-1.089-48.742-1.089Zm2.542,39.21h9.91c14.027,0,16.806.233,18.518.981,3.25,1.408,3.58,2.091,3.835,4.957.256,2.848-.1,3.994-2.922,6.112l-.223.166c-1.865.345-8.786.345-17.447.345h-11.67V114.067Z"
           fill="#ffe81f"
           style="fill:#f6b601;fill-opacity:1" />
      </g>
    </g>
    <path
       id="Path_1"
       data-name="Path 1"
       d="M2.7-38.9V0h7.8V-14.9h5.25C27-14.9,30.5-20.75,30.5-26.65c0-5.6-3.75-12.25-12.8-12.25Zm7.8,17.4V-32.3h1.6c4.25,0,10.4-.7,10.4,5.4s-6.15,5.4-10.4,5.4ZM58.4-38.9H34.2V0H59.35V-6.6H42v-9.8H55.6V-23H42v-9.3H58.4Zm21.1-.6c-11.1,0-16.05,10.25-16.05,20.05S68.4.6,79.5.6,95.55-9.65,95.55-19.45,90.6-39.5,79.5-39.5Zm0,6.15c6.7,0,8.05,8.9,8.05,13.9S86.2-5.55,79.5-5.55s-8.05-8.9-8.05-13.9S72.8-33.35,79.5-33.35Zm20.65-5.55V0h7.8V-14.9h5.25c11.25,0,14.75-5.85,14.75-11.75,0-5.6-3.75-12.25-12.8-12.25Zm7.8,17.4V-32.3h1.6c4.25,0,10.4-.7,10.4,5.4s-6.15,5.4-10.4,5.4Zm31.5-17.4h-7.8V0h24V-6.6h-16.2Zm44.25,0H159.5V0h25.15V-6.6H167.3v-9.8h13.6V-23H167.3v-9.3h16.4ZM198.3-7.4h-7.4V0h2.55L191,6.6l3.05,1.3L198.3-.3Zm22.3-31.5V0h7.8V-14.9h5.25c11.25,0,14.75-5.85,14.75-11.75,0-5.6-3.75-12.25-12.8-12.25Zm7.8,17.4V-32.3H230c4.25,0,10.4-.7,10.4,5.4s-6.15,5.4-10.4,5.4Zm31.5-17.4h-7.8V0h24V-6.6H259.9Zm38.35,0h-10.5L276.85,0h7.95l2.55-9.75h11.5L301.4,0h7.95Zm-.95,23h-8.4L293-32.2h.2Zm36.9,2.7c-.75,4-2.6,7.65-7.25,7.65-6.7,0-8.05-8.9-8.05-13.9s1.35-13.9,8.05-13.9c4.7,0,6.5,3.65,7.25,7.7l7.4-1c-1.3-8.25-6.65-12.85-14.65-12.85-11.1,0-16.05,10.25-16.05,20.05S315.85.6,326.95.6c8.1,0,13.45-4.85,14.65-12.85Zm36.25-25.7h-24.2V0H371.4V-6.6H354.05v-9.8h13.6V-23h-13.6v-9.3h16.4Zm31,10.2c-.65-6.55-5.6-10.8-12.2-10.8-6.75,0-12.65,5-12.65,12,0,13.25,18.3,8.75,18.3,16.55,0,3.35-2.55,4.95-5.6,4.95-3.7,0-5.4-2.45-6.1-5.75l-7.8,1.15C376.6-3,381.95.6,389.35.6c9.6,0,13.2-7.1,13.2-11.85,0-14.5-18.3-9.5-18.3-17.15A4.57,4.57,0,0,1,389-32.9c3.15,0,4.65,2.75,5.4,5.45ZM415.9-7.4h-7.4V0h2.55L408.6,6.6l3.05,1.3L415.9-.3Zm48-31.5h-28v6.6H446V0h7.8V-32.3h10.1Zm10.85,15.2V-38.9h-7.8V0h7.8V-17.1H487.6V0h7.8V-38.9h-7.8v15.2ZM508.6,0V-38.9h-7.8V0ZM514-38.9V0h7.8V-31.25h.1L536.6,0h8.35V-38.9h-7.8v25.65h-.1L525.4-38.9Zm58.5,25.5c.3,4.4-.8,7.85-6.85,7.85-6.7,0-8.05-8.9-8.05-13.9s1.35-13.9,8.05-13.9c4.85,0,6.7,3.2,7.35,6.95l7-1.05c-.8-7.4-6.7-12.05-14.35-12.05-11.1,0-16.05,10.25-16.05,20.05S554.55.6,565.65.6a11.134,11.134,0,0,0,8.15-3.35L574.55,0H580V-19.55H565.75v6.15Zm37.75-15.3c-.65-6.55-5.6-10.8-12.2-10.8-6.75,0-12.65,5-12.65,12,0,13.25,18.3,8.75,18.3,16.55,0,3.35-2.55,4.95-5.6,4.95-3.7,0-5.4-2.45-6.1-5.75l-7.8,1.15C585.4-3,590.75.6,598.15.6c9.6,0,13.2-7.1,13.2-11.85,0-14.5-18.3-9.5-18.3-17.15a4.57,4.57,0,0,1,4.75-4.5c3.15,0,4.65,2.75,5.4,5.45Z"
       transform="translate(680 267)"
       fill="#ffe81f"
       style="fill:#f6b601;fill-opacity:1" />
  </g>
</svg>
